<svg width="100" height="100" viewBox="0 0 100 100" fill="none" xmlns="http://www.w3.org/2000/svg">
<path d="M61.7387 49.9929L97.5374 14.2723C99.1051 12.7044 99.9858 10.5779 99.9858 8.36054C99.9858 6.14319 99.1051 4.01665 97.5374 2.44875C95.9697 0.880841 93.8435 0 91.6264 0C89.4094 0 87.2832 0.880841 85.7155 2.44875L50 38.2526L14.2845 2.44875C12.7168 0.880841 10.5906 -1.65206e-08 8.37356 0C6.15652 1.65206e-08 4.03029 0.880841 2.46261 2.44875C0.894923 4.01665 0.014208 6.14319 0.0142079 8.36054C0.0142079 10.5779 0.894923 12.7044 2.46261 14.2723L38.2613 49.9929L2.46261 85.7135C1.68229 86.4875 1.06294 87.4084 0.640274 88.4231C0.21761 89.4377 0 90.5261 0 91.6253C0 92.7244 0.21761 93.8128 0.640274 94.8274C1.06294 95.8421 1.68229 96.763 2.46261 97.537C3.23655 98.3175 4.15733 98.9369 5.17185 99.3596C6.18636 99.7824 7.27452 100 8.37356 100C9.4726 100 10.5608 99.7824 11.5753 99.3596C12.5898 98.9369 13.5106 98.3175 14.2845 97.537L50 61.7332L85.7155 97.537C86.4894 98.3175 87.4102 98.9369 88.4247 99.3596C89.4392 99.7824 90.5274 100 91.6264 100C92.7255 100 93.8136 99.7824 94.8282 99.3596C95.8427 98.9369 96.7634 98.3175 97.5374 97.537C98.3177 96.763 98.9371 95.8421 99.3597 94.8274C99.7824 93.8128 100 92.7244 100 91.6253C100 90.5261 99.7824 89.4377 99.3597 88.4231C98.9371 87.4084 98.3177 86.4875 97.5374 85.7135L61.7387 49.9929Z" fill="black"/>
</svg>
