<svg width="23" height="23" viewBox="0 0 23 23" fill="none" xmlns="http://www.w3.org/2000/svg">
<path d="M3.07704 15.875C4.63487 17.435 6.70941 18.3715 8.90983 18.5081C11.1103 18.6446 13.2847 17.9718 15.0234 16.6164L21.0062 22.5991C21.2183 22.804 21.5025 22.9174 21.7975 22.9149C22.0925 22.9123 22.3746 22.794 22.5832 22.5854C22.7918 22.3768 22.9101 22.0947 22.9127 21.7997C22.9152 21.5047 22.8018 21.2205 22.5969 21.0084L16.6142 15.0256C18.0298 13.2089 18.699 10.9207 18.4855 8.62748C18.2719 6.3343 17.1917 4.20896 15.465 2.68488C13.7383 1.16081 11.4952 0.352813 9.19329 0.425674C6.89135 0.498536 4.70389 1.44677 3.07704 3.07699C2.23644 3.91716 1.56961 4.91473 1.11466 6.01269C0.659704 7.11065 0.425537 8.2875 0.425537 9.47599C0.425537 10.6645 0.659704 11.8413 1.11466 12.9393C1.56961 14.0372 2.23644 15.0348 3.07704 15.875ZM4.66779 4.66999C5.77994 3.55787 7.24328 2.86576 8.8085 2.71158C10.3737 2.55741 11.944 2.9507 13.2517 3.82446C14.5595 4.69822 15.5238 5.99838 15.9805 7.50343C16.4371 9.00848 16.3578 10.6253 15.756 12.0784C15.1542 13.5315 14.0672 14.731 12.6802 15.4726C11.2932 16.2141 9.69196 16.4518 8.14935 16.1451C6.60675 15.8384 5.21819 15.0064 4.22026 13.7907C3.22234 12.5751 2.67678 11.051 2.67654 9.47824C2.67346 8.58451 2.84789 7.69906 3.18971 6.87328C3.53153 6.0475 4.03395 5.29781 4.66779 4.66774V4.66999Z" fill="black"/>
</svg>
