<svg width="27" height="26" viewBox="0 0 27 26" fill="none" xmlns="http://www.w3.org/2000/svg">
<path d="M19.6216 14.7858C19.1183 15.2771 18.8307 15.9841 18.9026 16.7391C19.0105 18.0332 20.1968 18.9799 21.4909 18.9799H23.7677V20.4059C23.7677 22.8864 21.7426 24.9115 19.2621 24.9115H5.50561C3.02513 24.9115 1 22.8864 1 20.4059V12.3413C1 9.86083 3.02513 7.83569 5.50561 7.83569H19.2621C21.7426 7.83569 23.7677 9.86083 23.7677 12.3413V14.0669H21.3471C20.6761 14.0669 20.065 14.3305 19.6216 14.7858Z" stroke="black" stroke-width="2" stroke-linecap="round" stroke-linejoin="round"/>
<path d="M1 13.4197V7.94349C1 6.51751 1.87476 5.24726 3.20487 4.74398L12.7194 1.14908C14.2053 0.585874 15.799 1.68835 15.799 3.28209V7.83562" stroke="black" stroke-width="2" stroke-linecap="round" stroke-linejoin="round"/>
<path d="M25.0365 15.2894V17.7579C25.0365 18.417 24.5092 18.9562 23.8382 18.9802H21.4895C20.1954 18.9802 19.009 18.0335 18.9012 16.7393C18.8293 15.9844 19.1169 15.2774 19.6202 14.7861C20.0635 14.3308 20.6747 14.0671 21.3457 14.0671H23.8382C24.5092 14.0911 25.0365 14.6303 25.0365 15.2894Z" stroke="black" stroke-width="2" stroke-linecap="round" stroke-linejoin="round"/>
<path d="M6.39233 12.9285H14.7804" stroke="black" stroke-width="2" stroke-linecap="round" stroke-linejoin="round"/>
</svg>
